<svg width="117" height="117" viewBox="0 0 117 117" fill="none" xmlns="http://www.w3.org/2000/svg">
<g id="INTERX.DX">
<path id="Vector" d="M116.957 99.45H0V117H116.957V99.45Z" fill="#13C690"/>
<path id="Vector_2" d="M116.957 0H0V99.45H116.957V0Z" fill="#252E3F"/>
<path id="Vector_3" d="M41.2146 29.757C52.2 29.757 60.5671 38.4119 60.5671 49.686C60.5671 60.9601 52.2 69.615 41.2146 69.615H25.2772V29.757H41.2146ZM41.2146 60.8462C47.4757 60.8462 51.8015 56.5188 51.8015 49.686C51.8015 42.8532 47.4757 38.5258 41.2146 38.5258H34.3843V60.8462H41.2146ZM94.7141 69.615H84.3548L77.6383 58.1131L70.9219 69.615H60.5626L72.4587 49.1735L61.1318 29.757H71.4911L77.6383 40.2909L83.7856 29.757H94.1449L82.818 49.1735L94.7141 69.615Z" fill="white"/>
</g>
</svg>
