<svg width="114" height="40" viewBox="0 0 114 40" fill="none" xmlns="http://www.w3.org/2000/svg">
<g id="Group 172">
<path id="Vector" d="M22.6888 18.5848C21.2001 17.9878 16.3488 11.8263 13.4494 7.83092C13.3809 7.73855 13.2794 7.6761 13.1665 7.65659C13.053 7.63708 12.9368 7.66208 12.8411 7.72631C12.7841 7.76434 12.737 7.81586 12.7046 7.87638C12.6722 7.93689 12.6549 8.00447 12.6549 8.07315V19.0832H8.51249V0.00145697H8.5468C9.85916 -0.0215576 11.1621 0.228308 12.3725 0.735257C13.8559 1.46226 19.5399 8.56749 21.6039 11.2424C21.6453 11.2963 21.6986 11.3398 21.7598 11.3696C21.821 11.3993 21.888 11.4146 21.9559 11.4139C22.0025 11.4127 22.048 11.4051 22.0925 11.3913C22.1782 11.3647 22.2536 11.3115 22.3074 11.2394C22.3613 11.1674 22.3906 11.0802 22.3917 10.9903V0.0120752H26.5369V19.1237C26.3632 19.1323 26.1373 19.144 25.8695 19.144C25.8355 19.144 25.8046 19.144 25.7732 19.144C24.7198 19.1447 23.6747 18.9553 22.6888 18.5848ZM56.9465 19.0822C54.9929 19.0822 53.5843 18.653 52.7626 17.8081C51.9314 16.9558 51.5114 15.5956 51.5114 13.7708V5.32416C51.5114 3.49936 51.933 2.14187 52.7626 1.28724C53.5879 0.441245 54.995 0.0127552 56.9481 0.0127552H69.5386V3.70006H58.9409C57.5857 3.70006 56.7111 4.00882 56.265 4.6411C55.8062 5.40476 55.5934 6.29109 55.6556 7.17982C55.6551 7.29761 55.7001 7.41106 55.7817 7.49637C55.8627 7.58168 55.9736 7.63221 56.0913 7.63744H69.536V11.3227H56.0903C56.0343 11.3217 55.9783 11.3317 55.926 11.3523C55.8737 11.3729 55.8256 11.4036 55.7853 11.4426C55.745 11.4817 55.7126 11.5283 55.6901 11.5799C55.6676 11.6315 55.6556 11.687 55.6546 11.7433V11.9183C55.5923 12.8063 55.8052 13.6919 56.2639 14.4546C56.7101 15.0869 57.5841 15.3959 58.9399 15.3959H69.5355V19.0832L56.9465 19.0822ZM81.0355 12.378C80.9936 12.3264 80.9408 12.285 80.8807 12.2567C80.8205 12.2284 80.7551 12.2141 80.6887 12.2147H77.6638C77.6073 12.2136 77.5508 12.2237 77.4985 12.2444C77.4457 12.2652 77.3976 12.2961 77.3568 12.3354C77.316 12.3747 77.2836 12.4217 77.2606 12.4736C77.2381 12.5255 77.226 12.5814 77.225 12.638V19.0822H73.0824V0.0127552H85.7095C87.6584 0.0127552 89.0608 0.440252 89.8715 1.28625C90.6823 2.13224 91.1091 3.49832 91.1091 5.32311V6.86692C91.1091 8.61452 90.7445 9.9343 90.03 10.7913C89.3301 11.6297 88.1088 12.095 86.3968 12.1804C86.3409 12.1818 86.2854 12.1943 86.2341 12.2171C86.1829 12.24 86.1369 12.2727 86.0982 12.3135C86.0595 12.3543 86.0296 12.4023 86.0098 12.4547C85.9899 12.5072 85.9805 12.563 85.9821 12.6192C85.9862 12.705 86.0171 12.7874 86.0704 12.8549L90.9182 19.0801H86.3879L81.0355 12.378ZM77.2234 4.12306V8.07315C77.226 8.18723 77.2736 8.29566 77.3563 8.37469C77.4384 8.45378 77.5488 8.49704 77.6628 8.4951H84.0363C85.142 8.4951 85.8916 8.33526 86.3189 8.00934C86.7781 7.65632 87.0051 7.03707 87.0051 6.11492C87.0125 5.73356 86.9785 5.35251 86.9042 4.97831C86.8404 4.64601 86.6599 4.34756 86.3947 4.13713C86.1065 3.93376 85.7702 3.80901 85.4192 3.77517C84.9616 3.71905 84.5007 3.69431 84.0394 3.70111H77.6638C77.5493 3.69891 77.4389 3.74206 77.3563 3.82115C77.2742 3.90024 77.226 4.00882 77.2234 4.12306ZM36.9887 19.0808V4.12306C36.9876 4.06646 36.9756 4.01065 36.9531 3.95871C36.9306 3.90683 36.8977 3.85991 36.8569 3.82057C36.8161 3.78129 36.7685 3.75043 36.7156 3.72972C36.6628 3.70906 36.6068 3.69896 36.5498 3.70006H30.0859V0.0127552H48.0032V3.70006H41.5335C41.477 3.69912 41.4211 3.70932 41.3682 3.73003C41.3159 3.7508 41.2678 3.78171 41.2275 3.82099C41.1867 3.86027 41.1543 3.90719 41.1318 3.95903C41.1093 4.01086 41.0978 4.06662 41.0968 4.12306V19.0808H36.9887ZM0.822266 19.0822V0.0138012H5.00187V19.0822H0.822266Z" fill="#0F172A"/>
<path id="Vector_2" d="M112.557 0.012207H107.929L103.229 6.4053L98.5269 0.012207H93.8994L100.915 9.5516L93.8994 19.0909H98.5269L103.228 12.6979L107.928 19.0909H112.556L105.542 9.5516L112.557 0.012207Z" fill="#FF8400"/>
<g id="text">
<path d="M2.85969 25.7227V36.8614H0.201172V25.7227H2.85969Z" fill="#2C3344"/>
<path d="M7.23844 25.7227L9.34962 29.292H9.44345L11.5703 25.7227H14.5572L11.1324 31.292L14.6667 36.8614H11.6015L9.44345 33.2613H9.34962L7.19152 36.8614H4.14204L7.66067 31.292L4.22023 25.7227H7.23844Z" fill="#2C3344"/>
<path d="M19.5302 36.8614V25.7227H24.2061C26.7473 25.7227 28.0531 26.8611 28.0531 28.5535C28.0531 29.8227 27.1774 30.6997 25.9419 30.9535V31.0612C27.3025 31.1228 28.491 32.1382 28.491 33.7536C28.491 35.5459 27.0757 36.8614 24.5657 36.8614H19.5302ZM22.1887 34.7382H23.9402C25.1522 34.7382 25.7073 34.2536 25.7073 33.4613C25.7073 32.5843 25.0505 32.0228 23.9871 32.0305H22.1887V34.7382ZM22.1887 30.3228H23.7682C24.6752 30.3151 25.332 29.8458 25.332 29.0458C25.332 28.2919 24.7456 27.815 23.7995 27.815H22.1887V30.3228Z" fill="#2C3344"/>
<path d="M29.398 34.5382C29.3902 32.6843 30.8524 32.0228 32.5413 31.9228C33.159 31.8843 34.2146 31.8459 34.5743 31.8305V31.1535C34.5743 30.5689 34.1364 30.2381 33.4171 30.2458C32.7212 30.2381 32.2676 30.5458 32.166 31.092H29.7108C29.8281 29.615 31.0948 28.3996 33.4796 28.3996C35.5752 28.3996 37.2094 29.3766 37.2172 31.1843V36.8614H34.7307V35.6921H34.6681C34.2068 36.5383 33.3858 37.0075 32.1973 37.0152C30.5709 37.0075 29.3902 36.1921 29.398 34.5382ZM31.9001 34.4305C31.8923 34.9921 32.3537 35.2921 32.9948 35.2921C33.894 35.2921 34.5978 34.7152 34.5899 33.8921V33.3536C34.2694 33.3613 33.378 33.4074 32.9792 33.4459C32.3146 33.5151 31.8923 33.8767 31.9001 34.4305Z" fill="#2C3344"/>
<path d="M43.5664 28.5073V30.4151H42.0182V34.2459C42.026 34.769 42.2918 34.9305 42.7375 34.9382C42.9565 34.9536 43.3787 34.9305 43.6758 34.9075V36.8921C43.4178 36.9306 42.9799 36.9767 42.3622 36.9844C40.4934 36.9767 39.3753 36.2229 39.3909 34.5382V30.4151H38.2493V28.5073H39.3909V26.5073H42.0182V28.5073H43.5664Z" fill="#2C3344"/>
<path d="M49.6653 28.5073V30.4151H48.1171V34.2459C48.125 34.769 48.3908 34.9305 48.8365 34.9382C49.0554 34.9536 49.4777 34.9305 49.7748 34.9075V36.8921C49.5168 36.9306 49.0789 36.9767 48.4612 36.9844C46.5924 36.9767 45.4742 36.2229 45.4899 34.5382V30.4151H44.3483V28.5073H45.4899V26.5073H48.1171V28.5073H49.6653Z" fill="#2C3344"/>
<path d="M54.8885 37.0152C52.23 37.0152 50.6036 35.3844 50.6036 32.7228C50.6036 30.1304 52.2457 28.3996 54.7947 28.3996C57.1796 28.3996 58.892 29.892 58.892 32.6613V33.3228H53.1996V33.369C53.2074 34.4382 53.8642 35.1382 54.9355 35.1382C55.6548 35.1382 56.1943 34.8305 56.4055 34.3382H58.8607C58.5401 35.969 57.0857 37.0152 54.8885 37.0152ZM53.1996 31.7997H56.4367C56.4211 30.9074 55.7643 30.2766 54.8573 30.2766C53.9268 30.2766 53.2387 30.9382 53.1996 31.7997Z" fill="#2C3344"/>
<path d="M60.2525 36.8614V28.5073H62.8172V30.0151H62.8954C63.2082 28.9227 63.9588 28.3919 64.8971 28.3843C65.1395 28.3919 65.4288 28.4304 65.6477 28.4766V30.7381C65.3975 30.6612 64.9206 30.6074 64.6 30.6151C63.6148 30.6074 62.8876 31.2843 62.8954 32.292V36.8614H60.2525Z" fill="#2C3344"/>
<path d="M68.5096 39.9999C68.0091 39.9922 67.54 39.9845 67.1959 39.9537V37.9845C67.54 38.0075 67.9075 38.0152 68.2281 38.0152C68.6581 38.0152 69.0022 37.9691 69.2289 37.4152L69.3228 37.1537L66.3046 28.5073H69.0569L70.6677 34.5075H70.7615L72.3722 28.5073H75.1559L71.9344 37.6768C71.4574 39.046 70.5035 39.9922 68.5096 39.9999Z" fill="#2C3344"/>
</g>
<g id="text_2">
<path d="M79.7695 36.8614V25.7227H82.4281V34.7229H87.1821V36.8614H79.7695Z" fill="#13C690"/>
<path d="M91.0917 36.8614H88.2143L92.0613 25.7227H95.5956L99.427 36.8614H96.5651L95.7989 34.4767H91.858L91.0917 36.8614ZM92.4992 32.4766H95.1577L93.8753 28.4766H93.7815L92.4992 32.4766Z" fill="#13C690"/>
<path d="M100.631 36.8614V25.7227H105.307C107.848 25.7227 109.154 26.8611 109.154 28.5535C109.154 29.8227 108.278 30.6997 107.043 30.9535V31.0612C108.403 31.1228 109.592 32.1382 109.592 33.7536C109.592 35.5459 108.177 36.8614 105.667 36.8614H100.631ZM103.29 34.7382H105.041C106.253 34.7382 106.808 34.2536 106.808 33.4613C106.808 32.5843 106.151 32.0228 105.088 32.0305H103.29V34.7382ZM103.29 30.3228H104.869C105.776 30.3151 106.433 29.8458 106.433 29.0458C106.433 28.2919 105.847 27.815 104.9 27.815H103.29V30.3228Z" fill="#13C690"/>
</g>
<path id="text_3" d="M112.375 37.0154C111.601 37.0154 110.952 36.3923 110.968 35.6154C110.952 34.8615 111.601 34.2461 112.375 34.2461C113.126 34.2461 113.791 34.8615 113.799 35.6154C113.791 36.3923 113.126 37.0154 112.375 37.0154Z" fill="#13C690"/>
</g>
</svg>
