<svg width="180" height="24" viewBox="0 0 180 24" fill="none" xmlns="http://www.w3.org/2000/svg">
<g id="Tesla logo" clip-path="url(#clip0_488_10106)">
<path id="Vector" d="M153.247 9.42071V23.4777H157.751V14.1235H174.162V23.4777H178.666V9.44635L153.247 9.42071ZM157.25 4.87193H174.573C175.706 4.59628 176.743 4.01695 177.571 3.19626C178.4 2.37558 178.989 1.34457 179.275 0.214071H152.554C152.84 1.34457 153.429 2.37558 154.258 3.19626C155.087 4.01695 156.123 4.59628 157.257 4.87193M139.594 23.4905C140.58 23.1117 141.457 22.4955 142.147 21.6963C142.838 20.8972 143.321 19.94 143.552 18.9096H123.336V0.226895H118.8V23.4777H139.594M85.1048 4.81417H101.144C103.557 4.10843 105.584 2.24787 106.078 0.233317H80.6201V13.9759H101.433V18.7941H85.1048C83.859 19.1219 82.6972 19.7107 81.6962 20.5215C80.6952 21.3322 79.8779 22.3464 79.2985 23.4969H105.905V9.40786H85.1048V4.81417ZM45.5836 4.85908H62.9062C64.0414 4.58394 65.0799 4.00413 65.9098 3.18217C66.7396 2.36021 67.3294 1.3273 67.6154 0.194824H40.8809C41.1663 1.3265 41.7551 2.35887 42.5838 3.18076C43.4125 4.00265 44.4496 4.58291 45.5836 4.85908ZM45.5836 14.0465H62.9062C64.0406 13.7719 65.0785 13.193 65.9083 12.3722C66.7382 11.5515 67.3283 10.5199 67.6154 9.38861H40.8809C41.1674 10.5191 41.7566 11.5501 42.5852 12.3708C43.4138 13.1915 44.4504 13.7708 45.5836 14.0465ZM45.5836 23.4841H62.9062C64.0406 23.2094 65.0785 22.6306 65.9083 21.8099C66.7382 20.9891 67.3283 19.9575 67.6154 18.8262H40.8809C41.1674 19.9567 41.7566 20.9877 42.5852 21.8084C43.4138 22.6291 44.4504 23.2084 45.5836 23.4841ZM0.5 0.252564C0.794867 1.37448 1.38665 2.3962 2.21309 3.21022C3.03954 4.02425 4.07009 4.60048 5.19634 4.87833H12.4911L12.8632 5.0259V23.4327H17.4184V5.0259L17.829 4.87833H25.1301C26.2484 4.58821 27.2701 4.00752 28.0915 3.19513C28.9129 2.38274 29.5048 1.36756 29.8072 0.252564V0.207649H0.5V0.252564Z" fill="#E82127"/>
</g>
<defs>
<clipPath id="clip0_488_10106">
<rect width="179" height="23.7384" fill="white" transform="translate(0.5 0.130859)"/>
</clipPath>
</defs>
</svg>
