<svg width="150" height="31" viewBox="0 0 150 31" fill="none" xmlns="http://www.w3.org/2000/svg">
<g id=" AlphaENSOL">
<g id="Vector">
<path d="M44.0824 6.4768C46.3364 6.4768 47.4634 7.67107 47.4634 10.0596V24.3094H43.6462V18.4195H40.8923V24.3094H37.0751V10.0596C37.0751 7.67107 38.2021 6.4768 40.4561 6.4768H44.0824ZM40.8923 15.4881H43.6462V9.59818C43.6462 9.45342 43.5916 9.32676 43.4826 9.21819C43.3917 9.10962 43.2735 9.05534 43.1281 9.05534H41.4104C41.265 9.05534 41.1377 9.10962 41.0287 9.21819C40.9378 9.32676 40.8923 9.45342 40.8923 9.59818V15.4881Z" fill="#E82127"/>
<path d="M53.8259 24.3094H50.1723V6.74823H53.8259V24.3094Z" fill="#E82127"/>
<path d="M62.7318 24.5808H62.1592C61.2322 24.5808 60.4869 24.3637 59.9234 23.9294V28.6251H56.2698V11.0639H59.3508V12.041C59.9143 11.2086 60.8505 10.7925 62.1592 10.7925H62.7318C64.9858 10.7925 66.1128 11.9867 66.1128 14.3753V20.998C66.1128 23.3866 64.9858 24.5808 62.7318 24.5808ZM59.9234 13.941V21.4323C59.9234 21.5771 59.9689 21.7037 60.0597 21.8123C60.1688 21.9209 60.2961 21.9751 60.4415 21.9751H61.9411C62.0865 21.9751 62.2047 21.9209 62.2955 21.8123C62.4046 21.7037 62.4591 21.5771 62.4591 21.4323V13.941C62.4591 13.7962 62.4046 13.6696 62.2955 13.561C62.2047 13.4524 62.0865 13.3981 61.9411 13.3981H60.4415C60.2961 13.3981 60.1688 13.4524 60.0597 13.561C59.9689 13.6696 59.9234 13.7962 59.9234 13.941Z" fill="#E82127"/>
<path d="M72.2516 24.3094H68.598V6.74823H72.2516V11.4439C72.7969 11.0096 73.5422 10.7925 74.4874 10.7925H75.06C77.3139 10.7925 78.4409 11.9867 78.4409 14.3753V24.3094H74.7873V13.941C74.7873 13.7962 74.7328 13.6696 74.6237 13.561C74.5328 13.4524 74.4147 13.3981 74.2693 13.3981H72.7696C72.4606 13.3981 72.288 13.561 72.2516 13.8867V24.3094Z" fill="#E82127"/>
<path d="M87.6881 11.0639H90.7691V24.3094H87.6881V23.3323C87.1246 24.1646 86.1885 24.5808 84.8797 24.5808H84.3071C82.0532 24.5808 80.9262 23.3866 80.9262 20.998V14.3753C80.9262 11.9867 82.0532 10.7925 84.3071 10.7925H84.8797C86.1885 10.7925 87.1246 11.2086 87.6881 12.041V11.0639ZM87.1155 21.4323V13.941C87.1155 13.7962 87.061 13.6696 86.9519 13.561C86.861 13.4524 86.7429 13.3981 86.5975 13.3981H85.0978C84.9524 13.3981 84.8252 13.4524 84.7161 13.561C84.6252 13.6696 84.5798 13.7962 84.5798 13.941V21.4323C84.5798 21.5771 84.6252 21.7037 84.7161 21.8123C84.8252 21.9209 84.9524 21.9751 85.0978 21.9751H86.5975C86.7429 21.9751 86.861 21.9209 86.9519 21.8123C87.061 21.7037 87.1155 21.5771 87.1155 21.4323Z" fill="#E82127"/>
<path d="M97.2079 21.1609H101.434V24.3094H93.3907V6.74823H101.434V9.84247H97.2079V13.9681H101.161V16.9538H97.2079V21.1609Z" fill="#E82127"/>
<path d="M113.758 24.3094H109.94V9.7339C109.94 9.58914 109.886 9.46247 109.777 9.3539C109.686 9.24533 109.568 9.19105 109.422 9.19105H107.95C107.805 9.19105 107.677 9.24533 107.568 9.3539C107.477 9.46247 107.432 9.58914 107.432 9.7339V24.3094H103.615V10.0596C103.615 7.67107 104.742 6.4768 106.996 6.4768H110.377C112.631 6.4768 113.758 7.67107 113.758 10.0596V24.3094Z" fill="#E82127"/>
<path d="M126.105 11.3624H122.478V9.97818C122.478 9.83342 122.424 9.70675 122.315 9.59818C122.224 9.48961 122.106 9.43533 121.96 9.43533H120.461C120.315 9.43533 120.188 9.48961 120.079 9.59818C119.988 9.70675 119.943 9.83342 119.943 9.97818V13.0996C119.943 13.2443 119.988 13.371 120.079 13.4796C120.188 13.5881 120.315 13.6424 120.461 13.6424H122.915C125.169 13.6786 126.296 14.8729 126.296 17.2252V20.998C126.296 23.3866 125.169 24.5808 122.915 24.5808H119.697C117.443 24.5808 116.316 23.3866 116.316 20.998V19.1795H119.943V21.1337C119.943 21.2785 119.988 21.4052 120.079 21.5137C120.188 21.6223 120.315 21.6766 120.461 21.6766H122.151C122.297 21.6766 122.415 21.6223 122.506 21.5137C122.615 21.4052 122.669 21.2785 122.669 21.1337V17.6866C122.669 17.5419 122.615 17.4152 122.506 17.3066C122.415 17.1981 122.297 17.1438 122.151 17.1438H119.697C117.443 17.1438 116.316 15.9495 116.316 13.561V10.0596C116.316 7.67107 117.443 6.4768 119.697 6.4768H122.724C124.978 6.4768 126.105 7.67107 126.105 10.0596V11.3624Z" fill="#E82127"/>
<path d="M139.193 10.0596V20.998C139.193 23.3866 138.066 24.5808 135.812 24.5808H132.185C129.931 24.5808 128.804 23.3866 128.804 20.998V10.0596C128.804 7.67107 129.931 6.4768 132.185 6.4768H135.812C138.066 6.4768 139.193 7.67107 139.193 10.0596ZM135.375 21.4323V9.59818C135.375 9.45342 135.321 9.32676 135.212 9.21819C135.121 9.10962 135.003 9.05534 134.857 9.05534H133.14C132.994 9.05534 132.867 9.10962 132.758 9.21819C132.667 9.32676 132.621 9.45342 132.621 9.59818V21.4323C132.621 21.5771 132.667 21.7037 132.758 21.8123C132.867 21.9209 132.994 21.9751 133.14 21.9751H134.857C135.003 21.9751 135.121 21.9209 135.212 21.8123C135.321 21.7037 135.375 21.5771 135.375 21.4323Z" fill="#E82127"/>
<path d="M145.828 21.1066H150V24.3094H142.011V6.74823H145.828V21.1066Z" fill="#E82127"/>
<path d="M26.0474 5.67292L27.0743 1.29498H32.3958L26.8409 25.1408H30.762L29.6417 29.9844H20.3524L21.146 26.4448C19.8389 27.7489 18.3452 28.7735 16.7581 29.4255C15.171 30.0776 13.3971 30.4502 11.5766 30.4502C9.24261 30.4502 7.23538 29.8913 5.46154 28.8201C3.68771 27.7489 2.33399 26.2585 1.4004 24.3024C0.466799 22.3463 0 20.1574 0 17.6424C0 14.4754 0.700198 11.5878 2.10059 8.97966C3.50099 6.37152 5.41487 4.32228 7.8889 2.83192C10.3629 1.34156 12.977 0.549805 15.8245 0.549805C17.9718 0.549805 19.979 0.968969 21.7061 1.8073C23.4333 2.64562 24.927 3.94969 26.0474 5.67292ZM13.0237 25.6531C15.0309 25.6531 16.8981 25.0476 18.6253 23.7901C20.3524 22.5326 21.6595 20.9491 22.6397 18.9464C23.62 16.9438 24.0868 14.9411 24.0868 12.8453C24.0868 10.5632 23.3866 8.74679 21.9862 7.39615C20.5858 6.04551 18.7186 5.3469 16.4313 5.3469C14.4241 5.3469 12.5569 5.85921 10.9231 6.93041C9.28929 8.00161 7.93558 9.44539 6.9553 11.3083C5.97502 13.1713 5.50822 15.2205 5.50822 17.5027C5.50822 19.9245 6.20842 21.8806 7.60882 23.4175C9.00922 24.9545 10.8297 25.6996 13.0704 25.6996L13.0237 25.6531Z" fill="#E82127"/>
</g>
</g>
</svg>
