<svg width="150" height="26" viewBox="0 0 150 26" fill="none" xmlns="http://www.w3.org/2000/svg">
<g id=" DeltaPro">
<g id="&#235;&#160;&#136;&#236;&#157;&#180;&#236;&#150;&#180; 1">
<g id="Group">
<g id="Union">
<path d="M46.4548 23.9337C46.892 24.3311 47.7352 24.545 48.9843 24.545C49.5777 24.545 50.1398 24.4839 50.6707 24.4228C51.1101 24.3722 51.4639 24.3006 51.7499 24.2428C51.8094 24.2308 51.866 24.2193 51.9199 24.2088L58.2281 2.9344C58.5717 1.80343 58.5404 1.0087 58.1032 0.611334C57.666 0.213967 56.8228 0 55.5737 0C54.9803 0 54.4182 0.0611334 53.8873 0.122267C53.3564 0.1834 52.9192 0.2751 52.6381 0.336233L46.3299 21.6106C45.9864 22.7416 46.0176 23.5363 46.4548 23.9337Z" fill="#007CCF"/>
<path fill-rule="evenodd" clip-rule="evenodd" d="M24.8442 13.0827C24.2509 15.039 23.4701 16.7507 22.4084 18.2179C21.3778 19.6851 20.1599 20.9078 18.7546 21.8859C17.3492 22.864 15.819 23.5976 14.1014 24.0867C12.4151 24.5758 10.635 24.8203 8.76126 24.8203C8.32406 24.8203 7.85562 24.8203 7.32473 24.7897C6.79384 24.7897 6.23171 24.7286 5.66959 24.6369C5.48222 24.6063 5.29485 24.5792 5.10748 24.552C4.73272 24.4977 4.35797 24.4433 3.98322 24.3618C3.4211 24.2395 2.92143 24.0867 2.48423 23.9033C1.2663 23.3837 0.829089 22.4972 1.20384 21.2134L6.29417 4.09609C6.45031 3.57645 6.70015 3.17909 7.0749 2.90399C7.44964 2.62889 7.91808 2.38435 8.44897 2.23152C9.63568 1.89529 10.8224 1.65075 12.0715 1.55905C13.2895 1.43679 14.3825 1.40622 15.3506 1.40622C17.2868 1.40622 19.0044 1.65075 20.4409 2.10925C21.8775 2.56775 23.0329 3.30135 23.8761 4.24892C24.7193 5.22705 25.2502 6.41916 25.4376 7.88636C25.6249 9.35356 25.4376 11.0959 24.813 13.0827H24.8442ZM18.0675 13.205C18.7233 11.0042 18.6921 9.35356 17.9738 8.22259C17.2556 7.12219 16.0064 6.54142 14.2576 6.54142C13.9141 6.54142 13.5393 6.54142 13.1646 6.57199C12.7898 6.57199 12.4151 6.63312 12.0403 6.69425L8.2616 19.4711C8.51143 19.5323 8.85495 19.5628 9.2297 19.5934C9.60443 19.624 9.97922 19.6545 10.3227 19.6545C12.0403 19.6545 13.6018 19.1043 15.0071 18.0345C16.4124 16.9647 17.4117 15.3446 18.0675 13.205Z" fill="#007CCF"/>
<path fill-rule="evenodd" clip-rule="evenodd" d="M33.4009 19.6543C32.699 19.2958 32.2953 18.7038 32.1898 17.8498L41.9264 16.4448C42.832 16.3225 43.5815 16.0168 44.1749 15.5889C44.7682 15.1609 45.2054 14.5191 45.4553 13.6937C45.7676 12.5628 45.8925 11.5235 45.7363 10.5759C45.5802 9.62838 45.2367 8.83365 44.6433 8.13061C44.05 7.42758 43.2692 6.90795 42.3011 6.51058C41.333 6.11321 40.1776 5.92981 38.866 5.92981C37.7105 5.92981 36.4925 6.08265 35.2746 6.44945C34.0567 6.81625 32.87 7.36645 31.777 8.10005C30.6527 8.86421 29.6534 9.81178 28.779 10.9733C27.9046 12.1348 27.2488 13.5103 26.7491 15.1304C26.2494 16.7504 26.0933 18.1871 26.2494 19.4097C26.4368 20.6324 26.8428 21.6717 27.5298 22.4664C28.2169 23.2611 29.1225 23.8725 30.278 24.2698C31.4334 24.6672 32.7451 24.8812 34.2128 24.8812C35.2434 24.8812 36.2427 24.7895 37.1484 24.6672C38.0852 24.5449 38.8972 24.331 39.6154 24.0253C40.3337 23.7196 40.9583 23.3528 41.4267 22.9249C41.9264 22.4664 42.2387 21.9468 42.4261 21.3354C42.5822 20.8464 42.5822 20.3573 42.4261 19.9294C42.2699 19.4709 42.0201 19.1346 41.7078 18.8901C41.0208 19.2263 40.1776 19.532 39.147 19.7765C38.1165 20.0516 37.0547 20.1739 36.0241 20.1739C34.9935 20.1739 34.1191 20.0211 33.4009 19.6543ZM37.5543 10.4231C36.6175 10.4231 35.743 10.6982 34.9311 11.279C34.1191 11.8292 33.5258 12.6239 33.0886 13.6632L39.7716 12.6239C39.8028 12.3794 39.8028 12.1348 39.7716 11.8597C39.7404 11.5846 39.6154 11.3707 39.4593 11.1567C39.3032 10.9427 39.0533 10.7593 38.741 10.6371C38.4287 10.5148 38.054 10.4231 37.5543 10.4231Z" fill="#007CCF"/>
<path d="M62.7874 24.7897L62.7569 24.7897C64.5517 24.7861 65.8532 24.4806 66.7535 23.9033C67.6591 23.3225 68.2212 22.5584 68.5023 21.6414C68.6272 21.1829 68.6897 20.7855 68.6272 20.4493C68.5648 20.1436 68.4711 19.8379 68.3149 19.5628C68.1077 19.6182 67.8891 19.6623 67.6591 19.7088C67.5079 19.7394 67.3518 19.771 67.1907 19.8074C66.7847 19.8991 66.3787 19.8991 66.004 19.8991C65.2545 19.8991 64.7236 19.7768 64.3801 19.5017C64.0366 19.2572 63.9741 18.7987 64.1615 18.1568L66.0977 11.6155H69.5016C70.1574 11.6155 70.7196 11.4015 71.2192 11.0347C71.7189 10.6374 72.0936 10.026 72.3435 9.17016C72.4996 8.68109 72.5309 8.22259 72.5309 7.82522C72.5309 7.42786 72.4684 7.09162 72.4059 6.81652H67.503L68.0963 4.82969C68.4398 3.69872 68.4086 2.93456 67.9714 2.50662C67.5654 2.10925 66.7222 1.89529 65.5043 1.89529C64.9422 1.89529 64.3801 1.92586 63.8492 2.01755C63.3183 2.10926 62.8811 2.20096 62.6 2.26209L57.7595 18.5541C57.1037 20.7549 57.2286 22.3444 58.1343 23.3225C59.0357 24.2961 60.5868 24.7852 62.7569 24.7897L62.7249 24.7897H62.7874Z" fill="#007CCF"/>
<path fill-rule="evenodd" clip-rule="evenodd" d="M87.396 6.26619C86.3654 5.99109 85.1787 5.86883 83.8359 5.86883L83.8046 5.89939C82.9302 5.89939 81.9934 5.96053 80.9628 6.08279C79.9323 6.20506 79.0266 6.38846 78.2147 6.66356C77.4964 6.93866 76.9343 7.27489 76.4971 7.64169C76.0599 8.03906 75.7476 8.52813 75.5602 9.17003C75.404 9.65909 75.3728 10.1176 75.4665 10.5761C75.5602 11.0346 75.7476 11.3708 75.9974 11.5848C76.8093 11.2791 77.715 11.0346 78.6831 10.8512C79.6512 10.6372 80.5881 10.5455 81.5249 10.5455C82.7429 10.5455 83.5861 10.6984 84.1482 11.004C84.6791 11.3097 84.8664 11.8293 84.6478 12.5324L84.5854 12.7769L79.5263 13.2965C77.3402 13.5105 75.5602 14.0607 74.2798 14.9777C72.9994 15.8641 72.0938 17.1785 71.5941 18.8597C71.313 19.8378 71.2506 20.7242 71.438 21.4884C71.6253 22.2526 72.0313 22.8639 72.6559 23.353C73.2805 23.842 74.0612 24.2088 75.0605 24.4534C76.0599 24.6979 77.2153 24.8202 78.5269 24.8202C81.4625 24.8202 83.8983 24.3311 85.8033 23.3835C86.3654 23.1084 86.9276 22.7416 87.396 22.3443C87.8644 21.9469 88.2079 21.4273 88.3953 20.7854L90.8312 12.5629C91.1747 11.4014 91.2684 10.4233 91.081 9.5674C90.9249 8.74209 90.5189 8.03906 89.8943 7.48886C89.2697 6.93866 88.4266 6.54129 87.396 6.26619ZM81.3063 20.174C80.7754 20.2657 80.307 20.2963 79.8698 20.2963C78.9329 20.2963 78.3083 20.1435 78.0273 19.8378C77.7462 19.5321 77.6525 19.1348 77.8087 18.6457C77.9648 18.1566 78.3083 17.7898 78.808 17.5453C79.3077 17.3008 79.9323 17.1785 80.6505 17.1174L83.4299 16.9034L82.5555 19.8378C82.2744 19.9601 81.8372 20.0823 81.3063 20.174Z" fill="#007CCF"/>
</g>
<g id="Vector">
<path d="M101.308 17.3619L99.2784 24.2088C98.9973 24.2699 98.5289 24.3616 97.9355 24.4228C97.3422 24.4839 96.7488 24.545 96.1555 24.545C94.8439 24.545 93.9694 24.3311 93.5947 23.8726C93.2199 23.4141 93.1887 22.6499 93.5322 21.4884L98.685 4.09592C98.8412 3.57629 99.091 3.17892 99.4657 2.90382C99.8405 2.62872 100.309 2.38419 100.84 2.23136C101.777 1.92569 102.838 1.71172 104.056 1.58946C105.243 1.46719 106.336 1.37549 107.273 1.37549C110.708 1.37549 113.144 2.10909 114.549 3.54572C115.955 4.98236 116.267 6.93862 115.549 9.41453C115.205 10.6066 114.643 11.707 113.894 12.6546C113.144 13.6327 112.238 14.458 111.208 15.1611C110.177 15.8641 108.991 16.3837 107.679 16.7811C106.367 17.1479 104.962 17.3619 103.494 17.3619H101.308ZM104.556 12.3489C105.618 12.3489 106.524 12.1044 107.304 11.5848C108.085 11.0957 108.616 10.3621 108.866 9.44509C109.116 8.52809 109.053 7.79449 108.616 7.30542C108.179 6.81636 107.398 6.54126 106.274 6.54126C105.868 6.54126 105.555 6.54126 105.274 6.54126C104.993 6.54126 104.743 6.57182 104.431 6.63296L102.745 12.3184H104.556V12.3489Z" fill="#003288"/>
<path d="M119.64 24.2088C119.327 24.27 118.921 24.3617 118.391 24.4228C117.86 24.4839 117.298 24.5451 116.704 24.5451C115.455 24.5451 114.612 24.3311 114.175 23.9337C113.737 23.5364 113.706 22.7416 114.05 21.6107L117.298 10.7289C117.516 10.0259 117.891 9.41457 118.422 8.86437C118.953 8.34473 119.608 7.88623 120.358 7.48887C121.389 6.96923 122.513 6.57187 123.762 6.32733C125.011 6.05223 126.26 5.92997 127.541 5.92997C130.258 5.92997 131.351 6.87753 130.788 8.7421C130.664 9.17003 130.476 9.59797 130.226 9.96477C129.977 10.3316 129.758 10.6678 129.477 10.9429C129.04 10.8512 128.353 10.7901 127.447 10.7901C126.791 10.7901 126.104 10.8512 125.386 11.004C124.668 11.1569 123.981 11.3708 123.387 11.6765L119.671 24.2088H119.64Z" fill="#003288"/>
<path d="M149.432 15.3446C148.995 16.8118 148.37 18.1261 147.558 19.3182C146.746 20.4798 145.778 21.4885 144.685 22.3138C143.592 23.1391 142.374 23.7504 141.031 24.2089C139.689 24.6674 138.283 24.8814 136.784 24.8814C135.285 24.8814 134.005 24.6674 132.943 24.2395C131.881 23.8115 131.038 23.2002 130.414 22.3749C129.789 21.5496 129.414 20.5715 129.321 19.3794C129.196 18.2178 129.383 16.8729 129.82 15.3751C130.257 13.8774 130.882 12.6241 131.694 11.4626C132.506 10.3011 133.474 9.29237 134.598 8.46707C135.691 7.64177 136.909 7.03044 138.252 6.57194C139.595 6.14401 140.969 5.89947 142.468 5.89947C143.967 5.89947 145.216 6.11344 146.278 6.57194C147.34 7.03044 148.183 7.67234 148.807 8.46707C149.432 9.26181 149.807 10.2705 149.932 11.4626C150.057 12.6241 149.932 13.9385 149.494 15.3446H149.432ZM140.969 10.7596C139.907 10.7596 139.002 11.1569 138.19 11.9517C137.378 12.7464 136.753 13.8774 136.316 15.3446C135.847 16.8729 135.816 18.0344 136.16 18.7986C136.503 19.5628 137.19 19.9601 138.252 19.9601C139.314 19.9601 140.219 19.5628 141.031 18.7986C141.843 18.0039 142.468 16.8729 142.905 15.3446C143.342 13.8162 143.405 12.7464 143.061 11.9517C142.718 11.1569 142.031 10.7596 140.969 10.7596Z" fill="#003288"/>
</g>
</g>
</g>
</g>
</svg>
