<svg width="152" height="24" viewBox="0 0 152 24" fill="none" xmlns="http://www.w3.org/2000/svg">
<g id="INTERX.DX_LOGO">
<path id="Vector" d="M50.2104 18.8925C49.072 18.436 45.362 13.7241 43.1448 10.6687C43.0924 10.5981 43.0148 10.5503 42.9284 10.5354C42.8416 10.5205 42.7528 10.5396 42.6796 10.5887C42.636 10.6178 42.6 10.6572 42.5752 10.7035C42.5504 10.7498 42.5372 10.8014 42.5372 10.854V19.2737H39.3694V4.68129H39.3956C40.3992 4.66369 41.3956 4.85477 42.3212 5.24245C43.4556 5.79841 47.8024 11.232 49.3808 13.2776C49.4124 13.3188 49.4532 13.3521 49.5 13.3748C49.5468 13.3976 49.598 13.4092 49.65 13.4088C49.6856 13.4078 49.7204 13.402 49.7544 13.3914C49.82 13.3711 49.8776 13.3304 49.9188 13.2753C49.96 13.2202 49.9824 13.1535 49.9832 13.0848V4.68941H53.1532V19.3047C53.0204 19.3112 52.8476 19.3202 52.6428 19.3202C52.6168 19.3202 52.5932 19.3202 52.5692 19.3202C51.7636 19.3208 50.9644 19.1759 50.2104 18.8925ZM76.4084 19.2729C74.9144 19.2729 73.8372 18.9447 73.2088 18.2986C72.5732 17.6468 72.252 16.6066 72.252 15.2112V8.75173C72.252 7.35625 72.5744 6.31813 73.2088 5.66457C73.84 5.01761 74.916 4.68993 76.4096 4.68993H86.038V7.50973H77.9336C76.8972 7.50973 76.2284 7.74585 75.8872 8.22937C75.5364 8.81337 75.3736 9.49117 75.4212 10.1708C75.4208 10.2609 75.4552 10.3476 75.5176 10.4129C75.5796 10.4781 75.6644 10.5168 75.7544 10.5208H86.036V13.339H75.7536C75.7108 13.3382 75.668 13.3459 75.628 13.3616C75.588 13.3774 75.5512 13.4008 75.5204 13.4307C75.4896 13.4606 75.4648 13.4963 75.4476 13.5357C75.4304 13.5752 75.4212 13.6176 75.4204 13.6606V13.7944C75.3728 14.4735 75.5356 15.1508 75.8864 15.734C76.2276 16.2176 76.896 16.4539 77.9328 16.4539H86.0356V19.2737L76.4084 19.2729ZM94.83 14.146C94.798 14.1066 94.7576 14.0749 94.7116 14.0532C94.6656 14.0316 94.6156 14.0206 94.5648 14.0211H92.2516C92.2084 14.0203 92.1652 14.028 92.1252 14.0439C92.0848 14.0597 92.048 14.0834 92.0168 14.1134C91.9856 14.1435 91.9608 14.1794 91.9432 14.2191C91.926 14.2588 91.9168 14.3016 91.916 14.3448V19.2729H88.748V4.68993H98.4044C99.8948 4.68993 100.967 5.01685 101.587 5.66381C102.207 6.31077 102.534 7.35545 102.534 8.75093V9.93153C102.534 11.268 102.255 12.2772 101.708 12.9326C101.173 13.5738 100.239 13.9296 98.93 13.9949C98.8872 13.996 98.8448 14.0055 98.8056 14.023C98.7664 14.0405 98.7312 14.0655 98.7016 14.0967C98.672 14.1279 98.6492 14.1646 98.634 14.2047C98.6188 14.2448 98.6116 14.2875 98.6128 14.3304C98.616 14.3961 98.6396 14.4591 98.6804 14.5107L102.388 19.2714H98.9232L94.83 14.146ZM91.9148 7.83321V10.854C91.9168 10.9412 91.9532 11.0241 92.0164 11.0846C92.0792 11.145 92.1636 11.1781 92.2508 11.1766H97.1248C97.9704 11.1766 98.5436 11.0544 98.8704 10.8052C99.2216 10.5352 99.3952 10.0616 99.3952 9.35645C99.4008 9.06481 99.3748 8.77341 99.318 8.48725C99.2692 8.23313 99.1312 8.00489 98.9284 7.84397C98.708 7.68845 98.4508 7.59305 98.1824 7.56717C97.8324 7.52425 97.48 7.50533 97.1272 7.51053H92.2516C92.164 7.50885 92.0796 7.54185 92.0164 7.60233C91.9536 7.66281 91.9168 7.74585 91.9148 7.83321ZM61.146 19.2719V7.83321C61.1452 7.78993 61.136 7.74725 61.1188 7.70753C61.1016 7.66785 61.0764 7.63197 61.0452 7.60189C61.014 7.57185 60.9776 7.54825 60.9372 7.53241C60.8968 7.51661 60.854 7.50889 60.8104 7.50973H55.8672V4.68993H69.5692V7.50973H64.6216C64.5784 7.50901 64.5356 7.51681 64.4952 7.53265C64.4552 7.54853 64.4184 7.57217 64.3876 7.60221C64.3564 7.63225 64.3316 7.66813 64.3144 7.70777C64.2972 7.74741 64.2884 7.79005 64.2876 7.83321V19.2719H61.146ZM33.4884 19.2729V4.69073H36.6847V19.2729H33.4884Z" fill="white"/>
<path id="Vector_2" d="M118.936 4.68896H115.397L111.802 9.57796L108.206 4.68896H104.668L110.032 11.984L104.668 19.2791H108.206L111.802 14.3901L115.396 19.2791H118.935L113.571 11.984L118.936 4.68896Z" fill="#FF8400"/>
<path id="Vector_3" d="M121.864 19.613C120.776 19.613 119.877 18.7134 119.877 17.6256C119.877 16.5377 120.776 15.6382 121.864 15.6382C122.952 15.6382 123.852 16.5377 123.852 17.6256C123.852 18.7134 122.952 19.613 121.864 19.613Z" fill="#FF8000"/>
<path id="Vector_4" d="M131.928 4.67578C135.966 4.67578 139.041 7.85562 139.041 11.9978C139.041 16.1399 135.966 19.3198 131.928 19.3198H126.071V4.67578H131.928ZM131.928 16.0981C134.23 16.0981 135.82 14.5082 135.82 11.9978C135.82 9.48738 134.23 7.89746 131.928 7.89746H129.418V16.0981H131.928ZM151.592 19.3198H147.784L145.316 15.0939L142.847 19.3198H139.04L143.412 11.8095L139.249 4.67578H143.056L145.316 8.54598L147.575 4.67578H151.382L147.219 11.8095L151.592 19.3198Z" fill="#13C690"/>
<path id="Vector_5" d="M24.4084 20.3999H0.408447V23.9999H24.4084V20.3999Z" fill="#13C690"/>
<path id="Vector_6" d="M24.4084 0H0.408447V20.4H24.4084V0Z" fill="#252E3F"/>
<path id="Vector_7" d="M8.86586 6.104C11.1201 6.104 12.8371 7.87936 12.8371 10.192C12.8371 12.5046 11.1201 14.28 8.86586 14.28H5.59546V6.104H8.86586ZM8.86586 12.4813C10.1507 12.4813 11.0383 11.5936 11.0383 10.192C11.0383 8.7904 10.1507 7.90272 8.86586 7.90272H7.46426V12.4813H8.86586ZM19.8441 14.28H17.7184L16.3401 11.9206L14.9619 14.28H12.8361L15.2773 10.0869L12.9529 6.104H15.0787L16.3401 8.2648L17.6016 6.104H19.7273L17.403 10.0869L19.8441 14.28Z" fill="white"/>
</g>
</svg>
