<svg width="240" height="77" viewBox="0 0 240 77" fill="none" xmlns="http://www.w3.org/2000/svg">
<g id="BETA ELECTRONICS.">
<g id="lable">
<path d="M85.5233 46.5463V22.6157H80.5386V36.0273H60.6522V4.26017H66.9486V15.0421H74.2421V4.26017H80.5386V16.8829H85.5233V0.999298H91.8198V46.5463H85.5233ZM101.684 0V48.913H95.3878V0H101.684ZM66.9486 30.4523H74.2421V20.6171H66.9486V30.4523Z" fill="#2A2A2A"/>
<path d="M106.74 36.8689V3.78681H129.565V9.41444H113.351V17.4088H128.463V23.0365H113.351V31.2412H116.709C121.694 31.2412 127.886 31.0309 132.818 30.3471L133.5 35.9222C128.62 36.7111 121.537 36.8689 115.135 36.8689H106.74ZM142.997 0V17.4614H149.713V23.2468H142.997V48.913H136.333V0H142.997Z" fill="#2A2A2A"/>
<path d="M183.313 34.8177V18.0926H175.495V12.4123H183.313V0H189.924V34.8177H183.313ZM165.526 31.9776V42.7069H190.712V48.3871H158.862V31.9776H165.526ZM151.726 8.73071V3.05049H176.912V8.73071H167.834V12.8331C167.834 15.4102 168.464 16.9355 171.245 19.0919C173.449 20.7749 176.072 22.5631 178.696 24.2461L175.128 28.9797C172.871 27.507 170.615 25.9292 168.674 24.5091C166.47 22.8787 165.106 21.669 164.896 21.1431H164.843C164.634 21.7742 163.164 23.1942 160.751 25.0877C158.494 26.8759 156.186 28.6641 153.562 30.5049L149.679 25.6136C152.985 23.352 156.133 20.9327 158.337 18.9867C160.174 17.3562 161.223 15.4102 161.223 12.8331V8.73071H151.726Z" fill="#2A2A2A"/>
<path d="M196.03 9.94039V4.26017H221.95V9.94039H212.558V15.3576C212.558 19.46 213.187 21.6164 216.336 25.0351C218.592 27.507 221.32 30.1893 223.944 32.5561L219.694 36.9741C217.438 34.8703 215.129 32.5561 213.187 30.5575C211.194 28.5063 209.672 26.7707 209.305 25.9292H209.2C208.727 26.9285 206.943 28.9797 205.212 30.7679C203.27 32.8191 201.277 34.8177 198.391 37.5L194.036 33.0295C196.869 30.5049 199.545 27.8752 201.801 25.4032C204.897 21.932 205.842 19.723 205.842 15.3576V9.94039H196.03ZM233.284 0V17.5666H240V23.352H233.284V48.913H226.62V0H233.284Z" fill="#2A2A2A"/>
</g>
<g id="lable_2">
<path d="M60 76.0929V62.1699H65.4333C68.4022 62.1699 69.8381 63.29 69.8381 65.5686V65.9741C69.8381 67.1907 69.2948 68.3687 67.626 68.7742C69.3336 69.0252 70.4785 70.0101 70.4785 71.9411V72.4239C70.4785 74.7026 69.0619 76.0929 66.0348 76.0929H60ZM62.4644 69.8556V74.046H64.7153C66.908 74.046 67.9365 73.795 67.9365 72.1536V71.7287C67.9365 70.2804 67.005 69.8556 64.3466 69.8556H62.4644ZM64.366 64.2169H62.4644V67.8473H64.2884C66.2289 67.8473 67.3155 67.7893 67.3155 66.0514V65.7038C67.3155 64.5258 66.4617 64.2169 64.366 64.2169Z" fill="#858585"/>
<path d="M72.829 62.1699H81.8327V64.2169H75.2934V67.9631H81.4252V69.9714H75.2934V74.046H81.9685V76.0929H72.829V62.1699Z" fill="#858585"/>
<path d="M83.2569 62.1699H93.9488V64.2555H89.8545V76.0929H87.3707V64.2555H83.2569V62.1699Z" fill="#858585"/>
<path d="M100.963 62.1699L106.222 76.0929H103.525L102.166 72.2694H97.4511L96.0733 76.0929H93.5313L98.7318 62.1699H100.963ZM99.1199 67.3645L98.169 70.2032H101.448L100.498 67.3645C100.168 66.4376 99.9931 65.8969 99.799 65.221C99.5856 65.9934 99.4691 66.3797 99.1199 67.3645Z" fill="#858585"/>
<path d="M113.002 62.1699H122.006V64.2169H115.467V67.9631H121.599V69.9714H115.467V74.046H122.142V76.0929H113.002V62.1699Z" fill="#858585"/>
<path d="M124.808 62.1699H127.292V74.0074H133.676V76.0929H124.808V62.1699Z" fill="#858585"/>
<path d="M135.628 62.1699H144.632V64.2169H138.093V67.9631H144.225V69.9714H138.093V74.046H144.768V76.0929H135.628V62.1699Z" fill="#858585"/>
<path d="M152.77 61.9575C154.75 61.9575 156.166 62.363 157.583 63.5024L156.244 65.3948C155.099 64.4293 154.032 64.2362 152.77 64.2362C151.102 64.2362 149.433 65.0665 149.433 68.5231V69.9521C149.433 72.9067 151.005 74.0074 152.751 74.0074C154.051 74.0074 155.487 73.6984 156.593 72.5591L157.913 74.4515C156.244 76.0736 154.206 76.3053 152.654 76.3053C149.607 76.3053 146.93 74.606 146.93 70.4542V67.9631C146.93 63.792 149.53 61.9575 152.77 61.9575Z" fill="#858585"/>
<path d="M158.829 62.1699H169.52V64.2555H165.426V76.0929H162.942V64.2555H158.829V62.1699Z" fill="#858585"/>
<path d="M178.976 76.0929L176.628 70.5121H173.776V76.0929H171.292V62.1699H176.589C179.5 62.1699 181.111 63.7727 181.111 65.9934V66.7079C181.111 68.1562 180.373 69.4114 178.937 70.0487C179.869 72.0763 180.742 74.0653 181.673 76.0929H178.976ZM176.279 64.2362H173.776V68.4459H176.065C177.986 68.4459 178.646 67.7121 178.646 66.65V66.0707C178.646 64.9893 177.986 64.2362 176.279 64.2362Z" fill="#858585"/>
<path d="M189.516 61.9575C192.698 61.9575 195.434 63.6762 195.434 67.9824V70.2804C195.434 74.6639 192.737 76.3053 189.516 76.3053C186.295 76.3053 183.597 74.6639 183.597 70.2804V67.9824C183.597 63.6762 186.353 61.9575 189.516 61.9575ZM189.516 74.046C191.417 74.046 192.931 73.177 192.931 69.9714V68.2914C192.931 65.0858 191.417 64.2169 189.516 64.2169C187.653 64.2169 186.101 65.0858 186.101 68.2914V69.9714C186.101 73.177 187.653 74.046 189.516 74.046Z" fill="#858585"/>
<path d="M198.068 76.0929V62.1699H200.92L205.694 70.6087C205.985 71.1301 206.373 71.9025 206.586 72.8101V62.1699H208.915V76.0929H206.063L201.27 67.6349C200.92 67.0169 200.571 66.2831 200.396 65.4914V76.0929H198.068Z" fill="#858585"/>
<path d="M212.053 76.0929V62.1699H214.537V76.0929H212.053Z" fill="#858585"/>
<path d="M223.017 61.9575C224.996 61.9575 226.413 62.363 227.829 63.5024L226.49 65.3948C225.346 64.4293 224.278 64.2362 223.017 64.2362C221.348 64.2362 219.68 65.0665 219.68 68.5231V69.9521C219.68 72.9067 221.251 74.0074 222.998 74.0074C224.298 74.0074 225.734 73.6984 226.84 72.5591L228.159 74.4515C226.49 76.0736 224.453 76.3053 222.901 76.3053C219.854 76.3053 217.176 74.606 217.176 70.4542V67.9631C217.176 63.792 219.777 61.9575 223.017 61.9575Z" fill="#858585"/>
<path d="M234.974 74.0846C236.74 74.0846 237.516 73.3701 237.516 72.4239V72.2115C237.516 71.0915 236.643 70.6087 235.052 70.2611C232.723 69.759 230.104 69.3535 230.104 66.1286V65.8776C230.104 64.1976 231.326 61.9575 235.11 61.9575C236.643 61.9575 238.06 62.2086 239.476 63.1162L238.312 65.0279C237.186 64.2941 236.274 64.1589 235.149 64.1589C233.383 64.1589 232.568 65.0858 232.568 65.839V66.0707C232.568 67.4224 233.946 67.6155 235.595 67.9824C238.894 68.7163 240 70.068 240 71.9798V72.2308C240 75.3398 237.574 76.3053 234.858 76.3053C232.84 76.3053 230.938 75.5909 229.851 74.7026L231.055 72.7329C231.908 73.4474 233.305 74.0846 234.974 74.0846Z" fill="#858585"/>
</g>
<path id="lable_3" d="M20.5581 0C30.6733 0 40.461 5.63113 40.461 15.7996C40.461 20.3774 38.4952 25.0362 34.8914 28.3582C40.1333 31.3966 43 36.6226 43 42.6994C43 53.0299 34.8505 59.9979 24.7352 60.0384C20.8038 59.9979 17.0362 59.1066 13.6781 56.7164L13.2686 56.8785V76H0V18.6354C0.0409524 7.00853 9.21429 0 20.5581 0ZM13.2686 40.4307C13.3095 44.968 16.381 48.7356 21.7048 48.7761C26.619 48.7356 29.8133 45.5757 29.8133 41.403C29.8133 36.6226 25.759 34.3539 21.2133 34.3539H17.8552V24.7932H20.3124C25.841 24.8337 27.1514 20.9851 27.1105 18.2303C27.1514 14.4627 24.6943 11.7889 20.5581 11.8294C16.34 11.7889 13.3095 14.4627 13.2686 19.5267V40.4307Z" fill="url(#paint0_linear_479_8830)"/>
</g>
<defs>
<linearGradient id="paint0_linear_479_8830" x1="43" y1="-1.44148e-06" x2="0.194502" y2="76.1094" gradientUnits="userSpaceOnUse">
<stop stop-color="#13C690"/>
<stop offset="1" stop-color="#00C2FF" stop-opacity="0"/>
</linearGradient>
</defs>
</svg>
